<svg width="1200" height="780" viewBox="0 0 1200 780" fill="none" xmlns="http://www.w3.org/2000/svg">
  <rect width="1200" height="780" rx="28" fill="#0C7284"/>
  <rect x="24" y="24" width="1152" height="28" rx="14" fill="#B8F36A"/>

  <rect x="24" y="112" width="490" height="220" fill="#F7F8FA"/>
  <circle cx="88" cy="222" r="28" fill="#1278C8"/>
  <path d="M73 235C83 245 104 243 104 228C104 208 76 214 76 195C76 182 92 174 106 180" stroke="white" stroke-width="10" stroke-linecap="round"/>
  <text x="148" y="220" fill="#1278C8" font-family="Arial, Helvetica, sans-serif" font-size="72" font-style="italic" font-weight="700">SHAKTI</text>
  <text x="214" y="265" fill="#1B1E24" font-family="Arial, Helvetica, sans-serif" font-size="28" font-weight="700">PUMPING LIFE</text>

  <rect x="546" y="150" width="562" height="140" fill="#1F4EA3"/>
  <circle cx="620" cy="220" r="32" fill="#FFE100"/>
  <path d="M620 170L627 187L645 180L638 198L655 205L637 212L645 230L627 223L620 240L613 223L595 230L603 212L585 205L602 198L595 180L613 187L620 170Z" fill="#1F4EA3"/>
  <text x="682" y="233" fill="white" font-family="Georgia, 'Times New Roman', serif" font-size="68" font-style="italic" font-weight="700">Sudarshan Saur</text>
  <text x="1060" y="182" fill="white" font-family="Arial, Helvetica, sans-serif" font-size="28" font-weight="700">®</text>

  <rect x="36" y="352" width="390" height="210" fill="#FBFBFC"/>
  <text x="84" y="468" fill="#0E6DB5" font-family="Arial, Helvetica, sans-serif" font-size="92" font-weight="400">adani</text>
  <text x="142" y="535" fill="#4A4A4A" font-family="Arial, Helvetica, sans-serif" font-size="62" font-weight="400">Solar</text>

  <rect x="472" y="352" width="680" height="210" fill="#FBFBFC"/>
  <text x="600" y="470" fill="#36A834" font-family="Arial, Helvetica, sans-serif" font-size="102" font-style="italic" font-weight="800">WAAREE</text>
  <text x="650" y="530" fill="#D94B3D" font-family="Arial, Helvetica, sans-serif" font-size="52" font-weight="600">One with the Sun</text>
  <text x="943" y="392" fill="#36A834" font-family="Arial, Helvetica, sans-serif" font-size="26" font-weight="700">®</text>

  <rect x="36" y="580" width="390" height="164" fill="#FBFBFC"/>
  <circle cx="112" cy="662" r="44" stroke="#F6A61B" stroke-width="6"/>
  <circle cx="112" cy="662" r="58" stroke="#F6A61B" stroke-width="4" stroke-dasharray="2 20"/>
  <text x="128" y="678" fill="#1662C4" font-family="Arial, Helvetica, sans-serif" font-size="72" font-style="italic" font-weight="700">Eastman</text>
  <text x="222" y="714" fill="#4A4A4A" font-family="Arial, Helvetica, sans-serif" font-size="20" font-weight="700">ENERGY. UNLIMITED.</text>

  <rect x="486" y="580" width="666" height="164" fill="#FBFBFC"/>
  <text x="520" y="703" fill="#1958C7" font-family="Arial Black, Arial, Helvetica, sans-serif" font-size="138" font-weight="900">LUMINOUS</text>
</svg>
